<svg xmlns="http://www.w3.org/2000/svg" width="435" height="343" viewBox="0 0 435 343" role="img" aria-label="TupTup">
    <title>TupTup</title>
    <g fill="#111111">
        <path d="M 68 67 L 62 72 L 58 80 L 59 94 L 62 102 L 67 109 L 79 119 L 91 124 L 103 126 L 124 126 L 125 127 L 125 222 L 128 239 L 135 254 L 147 266 L 159 271 L 173 272 L 186 268 L 192 263 L 198 253 L 201 238 L 201 217 L 202 216 L 202 198 L 201 197 L 202 193 L 201 189 L 201 179 L 202 178 L 201 115 L 202 108 L 201 104 L 202 97 L 201 96 L 201 83 L 199 77 L 192 69 L 183 65 L 79 64 Z" />
        <path d="M 354 68 L 346 65 L 239 65 L 231 68 L 224 75 L 221 83 L 221 102 L 220 103 L 221 109 L 220 119 L 221 120 L 221 146 L 220 147 L 221 150 L 221 208 L 225 223 L 230 231 L 235 236 L 247 242 L 259 243 L 269 241 L 277 237 L 286 229 L 292 218 L 295 209 L 297 196 L 297 127 L 298 126 L 322 126 L 332 124 L 348 116 L 357 107 L 362 98 L 364 85 L 361 75 Z" />
    </g>
</svg>
